/* XPM */
static char *result[] = {
/* columns rows colors chars-per-pixel */
"64 64 7 1 ",
"  c #2C282A",
". c #44435B",
"X c #595973",
"o c #72698A",
"O c #827094",
"+ c #AAA8CE",
"@ c #CDD8E9",
/* pixels */
"....XXXXXXXXXXXXXXXXXXXXXXXXXXXXXXXXXXXXXXXXXXXXXXXXXXXX....    ",
"....XXXXXXXXXXXXXXXXXXXXXXXXXXXXXXXXXXXXXXXXXXXXXXXXXXXX....    ",
"....XXXXXXXXXXXXXXXXXXXXXXXXXXXXXXXXXXXXXXXXXXXXXXXXXXXX....    ",
"....XXXXXXXXXXXXXXXXXXXXXXXXXXXXXXXXXXXXXXXXXXXXXXXXXXXX....    ",
"ooooXXXX................................................XXXX....",
"ooooXXXX................................................XXXX....",
"ooooXXXX................................................XXXX....",
"ooooXXXX................................................XXXX....",
"++++OOOOXXXX........................................XXXXOOOOXXXX",
"++++OOOOXXXX........................................XXXXOOOOXXXX",
"++++OOOOXXXX........................................XXXXOOOOXXXX",
"++++OOOOXXXX........................................XXXXOOOOXXXX",
"++++OOOOooooXXXX                                XXXXOOOOOOOOXXXX",
"++++OOOOooooXXXX                                XXXXOOOOOOOOXXXX",
"++++OOOOooooXXXX                                XXXXOOOOOOOOXXXX",
"++++OOOOooooXXXX                                XXXXOOOOOOOOXXXX",
"++++OOOOooooooooXXXX........................XXXXooooOOOOOOOOXXXX",
"++++OOOOooooooooXXXX........................XXXXooooOOOOOOOOXXXX",
"++++OOOOooooooooXXXX........................XXXXooooOOOOOOOOXXXX",
"++++OOOOooooooooXXXX........................XXXXooooOOOOOOOOXXXX",
"++++OOOOOOOOooooooooXXXX                XXXXooooooooOOOOOOOOXXXX",
"++++OOOOOOOOooooooooXXXX                XXXXooooooooOOOOOOOOXXXX",
"++++OOOOOOOOooooooooXXXX                XXXXooooooooOOOOOOOOXXXX",
"++++OOOOOOOOooooooooXXXX                XXXXooooooooOOOOOOOOXXXX",
"++++OOOOOOOOoooooooo....                ....ooooooooOOOOOOOOXXXX",
"++++OOOOOOOOoooooooo....                ....ooooooooOOOOOOOOXXXX",
"++++OOOOOOOOoooooooo....                ....ooooooooOOOOOOOOXXXX",
"++++OOOOOOOOoooooooo....                ....ooooooooOOOOOOOOXXXX",
"++++OOOOOOOOoooooooo....                ....ooooOOOOOOOOOOOOXXXX",
"++++OOOOOOOOoooooooo....                ....ooooOOOOOOOOOOOOXXXX",
"++++OOOOOOOOoooooooo....                ....ooooOOOOOOOOOOOOXXXX",
"++++OOOOOOOOoooooooo....                ....ooooOOOOOOOOOOOOXXXX",
"++++OOOOOOOOoooooooo....                ....ooooOOOOOOOOOOOOXXXX",
"++++OOOOOOOOoooooooo....                ....ooooOOOOOOOOOOOOXXXX",
"++++OOOOOOOOoooooooo....                ....ooooOOOOOOOOOOOOXXXX",
"++++OOOOOOOOoooooooo....                ....ooooOOOOOOOOOOOOXXXX",
"++++OOOOoooooooooooo....                ....ooooOOOOOOOOOOOOXXXX",
"++++OOOOoooooooooooo....                ....ooooOOOOOOOOOOOOXXXX",
"++++OOOOoooooooooooo....                ....ooooOOOOOOOOOOOOXXXX",
"++++OOOOoooooooooooo....                ....ooooOOOOOOOOOOOOXXXX",
"++++OOOOoooooooooooo....                ....ooooOOOOOOOOOOOOXXXX",
"++++OOOOoooooooooooo....                ....ooooOOOOOOOOOOOOXXXX",
"++++OOOOoooooooooooo....                ....ooooOOOOOOOOOOOOXXXX",
"++++OOOOoooooooooooo....                ....ooooOOOOOOOOOOOOXXXX",
"++++OOOOooooooooXXXX....                ....ooooooooOOOOOOOOXXXX",
"++++OOOOooooooooXXXX....                ....ooooooooOOOOOOOOXXXX",
"++++OOOOooooooooXXXX....                ....ooooooooOOOOOOOOXXXX",
"++++OOOOooooooooXXXX....                ....ooooooooOOOOOOOOXXXX",
"++++ooooooooooooXXXX....                ....XXXXooooooooOOOOXXXX",
"++++ooooooooooooXXXX....                ....XXXXooooooooOOOOXXXX",
"++++ooooooooooooXXXX....                ....XXXXooooooooOOOOXXXX",
"++++ooooooooooooXXXX....                ....XXXXooooooooOOOOXXXX",
"++++ooooooooXXXXXXXX....                ....XXXXXXXXooooOOOOXXXX",
"++++ooooooooXXXXXXXX....                ....XXXXXXXXooooOOOOXXXX",
"++++ooooooooXXXXXXXX....                ....XXXXXXXXooooOOOOXXXX",
"++++ooooooooXXXXXXXX....                ....XXXXXXXXooooOOOOXXXX",
"@@@@XXXXXXXXXXXXXXXX....                ....XXXXXXXXXXXXooooXXXX",
"@@@@XXXXXXXXXXXXXXXX....                ....XXXXXXXXXXXXooooXXXX",
"@@@@XXXXXXXXXXXXXXXX....                ....XXXXXXXXXXXXooooXXXX",
"@@@@XXXXXXXXXXXXXXXX....                ....XXXXXXXXXXXXooooXXXX",
"@@@@@@@@++++++++++++++++++++OOOO++++++++++++++++++++++++OOOO....",
"@@@@@@@@++++++++++++++++++++OOOO++++++++++++++++++++++++OOOO....",
"@@@@@@@@++++++++++++++++++++OOOO++++++++++++++++++++++++OOOO....",
"@@@@@@@@++++++++++++++++++++OOOO++++++++++++++++++++++++OOOO...."
};
