/* XPM */
static char *result[] = {
/* columns rows colors chars-per-pixel */
"64 64 5 1 ",
"  c #74716C",
". c #8D8881",
"X c #A7A097",
"o c #BEB6A9",
"O c #D8CEBE",
/* pixels */
"OOOOOOOO....XXXXXXXXXXXXXXXXXXXXXXXXXXXX....oooooooo....OOOOOOOO",
"OOOOOOOO....XXXXXXXXXXXXXXXXXXXXXXXXXXXX....oooooooo....OOOOOOOO",
"OOOOOOOO....XXXXXXXXXXXXXXXXXXXXXXXXXXXX....oooooooo....OOOOOOOO",
"OOOOOOOO....XXXXXXXXXXXXXXXXXXXXXXXXXXXX....oooooooo....OOOOOOOO",
"OOOOOOOOOOOO....XXXXXXXXXXXXXXXXXXXXXXXXXXXX........OOOOOOOOOOOO",
"OOOOOOOOOOOO....XXXXXXXXXXXXXXXXXXXXXXXXXXXX........OOOOOOOOOOOO",
"OOOOOOOOOOOO....XXXXXXXXXXXXXXXXXXXXXXXXXXXX........OOOOOOOOOOOO",
"OOOOOOOOOOOO....XXXXXXXXXXXXXXXXXXXXXXXXXXXX........OOOOOOOOOOOO",
"OOOOOOOOOOOO        XXXXXXXXXXXXXXXXXXXXXXXX....OOOOOOOOOOOOOOOO",
"OOOOOOOOOOOO        XXXXXXXXXXXXXXXXXXXXXXXX....OOOOOOOOOOOOOOOO",
"OOOOOOOOOOOO        XXXXXXXXXXXXXXXXXXXXXXXX....OOOOOOOOOOOOOOOO",
"OOOOOOOOOOOO        XXXXXXXXXXXXXXXXXXXXXXXX....OOOOOOOOOOOOOOOO",
"OOOOOOOO    ........    XXXXXXXXXXXXXXXX....OOOOOOOOOOOOOOOOOOOO",
"OOOOOOOO    ........    XXXXXXXXXXXXXXXX....OOOOOOOOOOOOOOOOOOOO",
"OOOOOOOO    ........    XXXXXXXXXXXXXXXX....OOOOOOOOOOOOOOOOOOOO",
"OOOOOOOO    ........    XXXXXXXXXXXXXXXX....OOOOOOOOOOOOOOOOOOOO",
"OOOO    ................    XXXXXXXX....OOOOOOOOOOOOOOOOOOOOOOOO",
"OOOO    ................    XXXXXXXX....OOOOOOOOOOOOOOOOOOOOOOOO",
"OOOO    ................    XXXXXXXX....OOOOOOOOOOOOOOOOOOOOOOOO",
"OOOO    ................    XXXXXXXX....OOOOOOOOOOOOOOOOOOOOOOOO",
"    ........................    ....OOOOOOOOOOOOOOOOOOOOOOOOOOOO",
"    ........................    ....OOOOOOOOOOOOOOOOOOOOOOOOOOOO",
"    ........................    ....OOOOOOOOOOOOOOOOOOOOOOOOOOOO",
"    ........................    ....OOOOOOOOOOOOOOOOOOOOOOOOOOOO",
"    ............................    OOOOOOOOOOOOOOOOOOOOOOOO....",
"    ............................    OOOOOOOOOOOOOOOOOOOOOOOO....",
"    ............................    OOOOOOOOOOOOOOOOOOOOOOOO....",
"    ............................    OOOOOOOOOOOOOOOOOOOOOOOO....",
"oooo    ............................    OOOOOOOOOOOOOOOO....oooo",
"oooo    ............................    OOOOOOOOOOOOOOOO....oooo",
"oooo    ............................    OOOOOOOOOOOOOOOO....oooo",
"oooo    ............................    OOOOOOOOOOOOOOOO....oooo",
"oooooooo    ............................    OOOOOOOO....oooooooo",
"oooooooo    ............................    OOOOOOOO....oooooooo",
"oooooooo    ............................    OOOOOOOO....oooooooo",
"oooooooo    ............................    OOOOOOOO....oooooooo",
"oooooooooooo    ............................    ....oooooooooooo",
"oooooooooooo    ............................    ....oooooooooooo",
"oooooooooooo    ............................    ....oooooooooooo",
"oooooooooooo    ............................    ....oooooooooooo",
"oooooooooooo....    ........................    oooooooooooooooo",
"oooooooooooo....    ........................    oooooooooooooooo",
"oooooooooooo....    ........................    oooooooooooooooo",
"oooooooooooo....    ........................    oooooooooooooooo",
"oooooooo....XXXXXXXX    ................    oooooooooooooooooooo",
"oooooooo....XXXXXXXX    ................    oooooooooooooooooooo",
"oooooooo....XXXXXXXX    ................    oooooooooooooooooooo",
"oooooooo....XXXXXXXX    ................    oooooooooooooooooooo",
"oooo....XXXXXXXXXXXXXXXX    ........    oooooooooooooooooooooooo",
"oooo....XXXXXXXXXXXXXXXX    ........    oooooooooooooooooooooooo",
"oooo....XXXXXXXXXXXXXXXX    ........    oooooooooooooooooooooooo",
"oooo....XXXXXXXXXXXXXXXX    ........    oooooooooooooooooooooooo",
"....XXXXXXXXXXXXXXXXXXXXXXXX        oooooooooooooooooooooooooooo",
"....XXXXXXXXXXXXXXXXXXXXXXXX        oooooooooooooooooooooooooooo",
"....XXXXXXXXXXXXXXXXXXXXXXXX        oooooooooooooooooooooooooooo",
"....XXXXXXXXXXXXXXXXXXXXXXXX        oooooooooooooooooooooooooooo",
"....XXXXXXXXXXXXXXXXXXXXXXXXXXXX....oooooooooooooooooooooooo....",
"....XXXXXXXXXXXXXXXXXXXXXXXXXXXX....oooooooooooooooooooooooo....",
"....XXXXXXXXXXXXXXXXXXXXXXXXXXXX....oooooooooooooooooooooooo....",
"....XXXXXXXXXXXXXXXXXXXXXXXXXXXX....oooooooooooooooooooooooo....",
"OOOO....XXXXXXXXXXXXXXXXXXXXXXXXXXXX....oooooooooooooooo....OOOO",
"OOOO....XXXXXXXXXXXXXXXXXXXXXXXXXXXX....oooooooooooooooo....OOOO",
"OOOO....XXXXXXXXXXXXXXXXXXXXXXXXXXXX....oooooooooooooooo....OOOO",
"OOOO....XXXXXXXXXXXXXXXXXXXXXXXXXXXX....oooooooooooooooo....OOOO"
};
