/* XPM */
static char *result[] = {
/* columns rows colors chars-per-pixel */
"64 64 9 1 ",
"  c #421F33",
". c #602C3D",
"X c #892F38",
"o c #C03232",
"O c #FF4320",
"+ c #FF8A05",
"@ c #FFE161",
"# c white",
"$ c None",
/* pixels */
"$$$$$$$$$$$$$$$$$$$$$$$$$$$$$$$$$$$$$$$$$$$$$$$$$$$$$$$$$$$$$$$$",
"$$$$$$$$$$$$$$$$$$$$$$$$$$$$$$$$$$$$$$$$$$$$$$$$$$$$$$$$$$$$$$$$",
"$$$$$$$$$$$$$$$$$$$$$$$$$$$$$$$$$$$$$$$$$$$$$$$$$$$$$$$$$$$$$$$$",
"$$$$$$$$$$$$$$$$$$$$$$$$$$$$$$$$$$$$$$$$$$$$$$$$$$$$$$$$$$$$$$$$",
"$$$$$$$$$$$$$$$$$$$$########################$$$$$$$$$$$$$$$$$$$$",
"$$$$$$$$$$$$$$$$$$$$########################$$$$$$$$$$$$$$$$$$$$",
"$$$$$$$$$$$$$$$$$$$$########################$$$$$$$$$$$$$$$$$$$$",
"$$$$$$$$$$$$$$$$$$$$########################$$$$$$$$$$$$$$$$$$$$",
"$$$$$$$$$$$$########ooooooooooooooooooooXXXX########$$$$$$$$$$$$",
"$$$$$$$$$$$$########ooooooooooooooooooooXXXX########$$$$$$$$$$$$",
"$$$$$$$$$$$$########ooooooooooooooooooooXXXX########$$$$$$$$$$$$",
"$$$$$$$$$$$$########ooooooooooooooooooooXXXX########$$$$$$$$$$$$",
"$$$$$$$$####ooooooooOOOOOOOOOOOOOOOO++++++++XXXX....####$$$$$$$$",
"$$$$$$$$####ooooooooOOOOOOOOOOOOOOOO++++++++XXXX....####$$$$$$$$",
"$$$$$$$$####ooooooooOOOOOOOOOOOOOOOO++++++++XXXX....####$$$$$$$$",
"$$$$$$$$####ooooooooOOOOOOOOOOOOOOOO++++++++XXXX....####$$$$$$$$",
"$$$$####oooo++++ooooOOOOOOOOOOOO++++++++OOOOXXXXoooo....####$$$$",
"$$$$####oooo++++ooooOOOOOOOOOOOO++++++++OOOOXXXXoooo....####$$$$",
"$$$$####oooo++++ooooOOOOOOOOOOOO++++++++OOOOXXXXoooo....####$$$$",
"$$$$####oooo++++ooooOOOOOOOOOOOO++++++++OOOOXXXXoooo....####$$$$",
"####oooo@@@@++++@@@@ooooOOOO++++++++OOOOXXXXooooXXXXoooo....####",
"####oooo@@@@++++@@@@ooooOOOO++++++++OOOOXXXXooooXXXXoooo....####",
"####oooo@@@@++++@@@@ooooOOOO++++++++OOOOXXXXooooXXXXoooo....####",
"####oooo@@@@++++@@@@ooooOOOO++++++++OOOOXXXXooooXXXXoooo....####",
"####oooo++++@@@@@@@@@@@@ooooooooXXXXXXXXOOOOOOOOooooXXXX    ####",
"####oooo++++@@@@@@@@@@@@ooooooooXXXXXXXXOOOOOOOOooooXXXX    ####",
"####oooo++++@@@@@@@@@@@@ooooooooXXXXXXXXOOOOOOOOooooXXXX    ####",
"####oooo++++@@@@@@@@@@@@ooooooooXXXXXXXXOOOOOOOOooooXXXX    ####",
"####XXXXoooo@@@@@@@@++++OOOO++++++++ooooOOOOOOOOOOOO....    ####",
"####XXXXoooo@@@@@@@@++++OOOO++++++++ooooOOOOOOOOOOOO....    ####",
"####XXXXoooo@@@@@@@@++++OOOO++++++++ooooOOOOOOOOOOOO....    ####",
"####XXXXoooo@@@@@@@@++++OOOO++++++++ooooOOOOOOOOOOOO....    ####",
"$$$$####XXXXooooooooOOOO++++++++OOOOOOOOoooo........    ####$$$$",
"$$$$####XXXXooooooooOOOO++++++++OOOOOOOOoooo........    ####$$$$",
"$$$$####XXXXooooooooOOOO++++++++OOOOOOOOoooo........    ####$$$$",
"$$$$####XXXXooooooooOOOO++++++++OOOOOOOOoooo........    ####$$$$",
"$$$$$$$$####XXXXOOOOooooooooooooXXXXXXXXXXXXoooo    ####$$$$$$$$",
"$$$$$$$$####XXXXOOOOooooooooooooXXXXXXXXXXXXoooo    ####$$$$$$$$",
"$$$$$$$$####XXXXOOOOooooooooooooXXXXXXXXXXXXoooo    ####$$$$$$$$",
"$$$$$$$$####XXXXOOOOooooooooooooXXXXXXXXXXXXoooo    ####$$$$$$$$",
"$$$$$$$$$$$$####oooo++++++++OOOOoooooooooooo    ####$$$$$$$$$$$$",
"$$$$$$$$$$$$####oooo++++++++OOOOoooooooooooo    ####$$$$$$$$$$$$",
"$$$$$$$$$$$$####oooo++++++++OOOOoooooooooooo    ####$$$$$$$$$$$$",
"$$$$$$$$$$$$####oooo++++++++OOOOoooooooooooo    ####$$$$$$$$$$$$",
"$$$$$$$$$$$$$$$$####oooo++++OOOOOOOOoooo    ####$$$$$$$$$$$$$$$$",
"$$$$$$$$$$$$$$$$####oooo++++OOOOOOOOoooo    ####$$$$$$$$$$$$$$$$",
"$$$$$$$$$$$$$$$$####oooo++++OOOOOOOOoooo    ####$$$$$$$$$$$$$$$$",
"$$$$$$$$$$$$$$$$####oooo++++OOOOOOOOoooo    ####$$$$$$$$$$$$$$$$",
"$$$$$$$$$$$$$$$$$$$$####ooooOOOOoooo....####$$$$$$$$$$$$$$$$$$$$",
"$$$$$$$$$$$$$$$$$$$$####ooooOOOOoooo....####$$$$$$$$$$$$$$$$$$$$",
"$$$$$$$$$$$$$$$$$$$$####ooooOOOOoooo....####$$$$$$$$$$$$$$$$$$$$",
"$$$$$$$$$$$$$$$$$$$$####ooooOOOOoooo....####$$$$$$$$$$$$$$$$$$$$",
"$$$$$$$$$$$$$$$$$$$$$$$$####XXXX....####$$$$$$$$$$$$$$$$$$$$$$$$",
"$$$$$$$$$$$$$$$$$$$$$$$$####XXXX....####$$$$$$$$$$$$$$$$$$$$$$$$",
"$$$$$$$$$$$$$$$$$$$$$$$$####XXXX....####$$$$$$$$$$$$$$$$$$$$$$$$",
"$$$$$$$$$$$$$$$$$$$$$$$$####XXXX....####$$$$$$$$$$$$$$$$$$$$$$$$",
"$$$$$$$$$$$$$$$$$$$$$$$$$$$$########$$$$$$$$$$$$$$$$$$$$$$$$$$$$",
"$$$$$$$$$$$$$$$$$$$$$$$$$$$$########$$$$$$$$$$$$$$$$$$$$$$$$$$$$",
"$$$$$$$$$$$$$$$$$$$$$$$$$$$$########$$$$$$$$$$$$$$$$$$$$$$$$$$$$",
"$$$$$$$$$$$$$$$$$$$$$$$$$$$$########$$$$$$$$$$$$$$$$$$$$$$$$$$$$",
"$$$$$$$$$$$$$$$$$$$$$$$$$$$$$$$$$$$$$$$$$$$$$$$$$$$$$$$$$$$$$$$$",
"$$$$$$$$$$$$$$$$$$$$$$$$$$$$$$$$$$$$$$$$$$$$$$$$$$$$$$$$$$$$$$$$",
"$$$$$$$$$$$$$$$$$$$$$$$$$$$$$$$$$$$$$$$$$$$$$$$$$$$$$$$$$$$$$$$$",
"$$$$$$$$$$$$$$$$$$$$$$$$$$$$$$$$$$$$$$$$$$$$$$$$$$$$$$$$$$$$$$$$"
};
