/* XPM */
static char *result[] = {
/* columns rows colors chars-per-pixel */
"64 64 14 1 ",
"  c black",
". c #302C2E",
"X c #39314B",
"o c #453F40",
"O c #7A444A",
"+ c #564064",
"@ c #4F546B",
"# c #E6482E",
"$ c #BF7958",
"% c #8E478C",
"& c #CD6093",
"* c #CDD8E9",
"= c #DFF6F5",
"- c None",
/* pixels */
"----------------------------------------------------------------",
"----------------------------------------------------------------",
"----------------------------------------------------------------",
"----------------------------------------------------------------",
"----------------------------------------------------------------",
"----------------------------------------------------------------",
"----------------------------------------------------------------",
"----------------------------------------------------------------",
"-----------------------XXXXXXXXXXXXXXXXXX-----------------------",
"-----------------------XXXXXXXXXXXXXXXXXX-----------------------",
"-----------------------XXXXXXXXXXXXXXXXXX-----------------------",
"--------------------XXX%%%@@@@@@%%%%%%%%%XXX--------------------",
"--------------------XXX%%%@@@@@@%%%%%%%%%XXX--------------------",
"--------------------XXX%%%@@@@@@%%%%%%%%%XXX--------------------",
"-----------------XXX%%%%%%%%%%%%%%%%%%%%%%%%XXX-----------------",
"-----------------XXX%%%%%%%%%%%%%%%%%%%%%%%%XXX-----------------",
"-----------------XXX%%%%%%%%%%%%%%%%%%%%%%%%XXX-----------------",
"--------------XXX%%%%%%%%%%%%%%%%%%%%%%%%%%%%%%XXX--------------",
"--------------XXX%%%%%%%%%%%%%%%%%%%%%%%%%%%%%%XXX--------------",
"--------------XXX%%%%%%%%%%%%%%%%%%%%%%%%%%%%%%XXX--------------",
"--------------XXX%%%%%%&&&&&&&&&&&&%%%&&&%%%%%%%%%XXX-----------",
"--------------XXX%%%%%%&&&&&&&&&&&&%%%&&&%%%%%%%%%XXX-----------",
"--------------XXX%%%%%%&&&&&&&&&&&&%%%&&&%%%%%%%%%XXX-----------",
"--------------XXX%%%%%%%%%%%%%%%%%%%%%%%%%%%+++%%%XXX-----------",
"--------------XXX%%%%%%%%%%%%%%%%%%%%%%%%%%%+++%%%XXX-----------",
"--------------XXX%%%%%%%%%%%%%%%%%%%%%%%%%%%+++%%%XXX-----------",
"--------------   $$$%%%%%%%%%%%%%%%%%%%%%%%%$$$   --------------",
"--------------   $$$%%%%%%%%%%%%%%%%%%%%%%%%$$$   --------------",
"--------------   $$$%%%%%%%%%%%%%%%%%%%%%%%%$$$   --------------",
"--------------   OOO%%%%%%%%%%%%%%%%%%%%%+++OOO   --------------",
"--------------   OOO%%%%%%%%%%%%%%%%%%%%%+++OOO   --------------",
"--------------   OOO%%%%%%%%%%%%%%%%%%%%%+++OOO   --------------",
"--------------   +++++++++%%%%%%%%%%%%+++++++++   --------------",
"--------------   +++++++++%%%%%%%%%%%%+++++++++   --------------",
"--------------   +++++++++%%%%%%%%%%%%+++++++++   --------------",
"-----------ooo      ++++++++++++++++++++++++      ooo-----------",
"-----------ooo      ++++++++++++++++++++++++      ooo-----------",
"-----------ooo      ++++++++++++++++++++++++      ooo-----------",
"--------ooo***===***   ++++++++++++++++++   ***===***ooo--------",
"--------ooo***===***   ++++++++++++++++++   ***===***ooo--------",
"--------ooo***===***   ++++++++++++++++++   ***===***ooo--------",
"--------   ###******      ............      ******###   --------",
"--------   ###******      ............      ******###   --------",
"--------   ###******      ............      ******###   --------",
"-----------      ###%%%+++++++++++++++++++++###      -----------",
"-----------      ###%%%+++++++++++++++++++++###      -----------",
"-----------      ###%%%+++++++++++++++++++++###      -----------",
"-----------   %%%+++%%%%%%%%%%%%%%%%%%%%%++++++%%%   -----------",
"-----------   %%%+++%%%%%%%%%%%%%%%%%%%%%++++++%%%   -----------",
"-----------   %%%+++%%%%%%%%%%%%%%%%%%%%%++++++%%%   -----------",
"-----------XXX%%%%%%++++++%%%%%%%%%%%%+++%%%%%%%%%XXX-----------",
"-----------XXX%%%%%%++++++%%%%%%%%%%%%+++%%%%%%%%%XXX-----------",
"-----------XXX%%%%%%++++++%%%%%%%%%%%%+++%%%%%%%%%XXX-----------",
"-----------XXX%%%%%%%%%%%%%%%%%%%%%%%%%%%%%%%%%%%%XXX-----------",
"-----------XXX%%%%%%%%%%%%%%%%%%%%%%%%%%%%%%%%%%%%XXX-----------",
"-----------XXX%%%%%%%%%%%%%%%%%%%%%%%%%%%%%%%%%%%%XXX-----------",
"--------XXX%%%%%%%%%%%%%%%%%%%%%%%%%%%%%%%%%%%%%%%%%%XXX--------",
"--------XXX%%%%%%%%%%%%%%%%%%%%%%%%%%%%%%%%%%%%%%%%%%XXX--------",
"--------XXX%%%%%%%%%%%%%%%%%%%%%%%%%%%%%%%%%%%%%%%%%%XXX--------",
"--------XXXXXXXXXXXXXXXXXXXXXXXXXXXXXXXXXXXXXXXXXXXXXXXX--------",
"--------XXXXXXXXXXXXXXXXXXXXXXXXXXXXXXXXXXXXXXXXXXXXXXXX--------",
"--------XXXXXXXXXXXXXXXXXXXXXXXXXXXXXXXXXXXXXXXXXXXXXXXX--------",
"----------------------------------------------------------------",
"----------------------------------------------------------------"
};
