/* XPM */
static char *result[] = {
/* columns rows colors chars-per-pixel */
"64 64 23 1 ",
"  c black",
". c #302C2E",
"X c #39314B",
"o c #453F40",
"O c #5E3643",
"+ c #5A5353",
"@ c #7A444A",
"# c #564064",
"$ c #4F546B",
"% c #A93B3B",
"& c #E6482E",
"* c #BF7958",
"= c #EEA160",
"- c #8E478C",
"; c #CD6093",
": c #28CCDF",
"> c #A0938E",
", c #CFC6B8",
"< c #F4CCA1",
"1 c #CDD8E9",
"2 c #DFF6F5",
"3 c white",
"4 c None",
/* pixels */
"4444444444444444444444444444444444444444444444444444444444444444",
"4444444444444444444444444444444444444444444444444444444444444444",
"4444444444444444444444444444444444444444444444444444444444444444",
"4444444444444444444444444444444444444444444444444444444444444444",
"4444444444444444444444444444444444444444444444444444444444444444",
"4444444444444444444444444444444444444444444444444444444444444444",
"4444444444444444444444444444444444444444444444444444444444444444",
"4444444444444444444444444444444444444444444444444444444444444444",
"44444444444444444444444XXXXXXXXXXXXXXXXXX44444444444444444444444",
"44444444444444444444444XXXXXXXXXXXXXXXXXX44444444444444444444444",
"44444444444444444444444XXXXXXXXXXXXXXXXXX44444444444444444444444",
"44444444444444444444XXX---------$$$$$$---XXX44444444444444444444",
"44444444444444444444XXX---------$$$$$$---XXX44444444444444444444",
"44444444444444444444XXX---------$$$$$$---XXX44444444444444444444",
"44444444444444444XXX------------------------XXX44444444444444444",
"44444444444444444XXX------------------------XXX44444444444444444",
"44444444444444444XXX------------------------XXX44444444444444444",
"44444444444444XXX------------------------------XXX44444444444444",
"44444444444444XXX------------------------------XXX44444444444444",
"44444444444444XXX------------------------------XXX44444444444444",
"44444444444XXX---------;;;###---###;;;;;;------XXX44444444444444",
"44444444444XXX---------;;;###---###;;;;;;------XXX44444444444444",
"44444444444XXX---------;;;###---###;;;;;;------XXX44444444444444",
"44444444444XXX---###------######===###---------XXX44444444444444",
"44444444444XXX---###------######===###---------XXX44444444444444",
"44444444444XXX---###------######===###---------XXX44444444444444",
"44444444444444   ***---XXXXXX###<<<      ---***   44444444444444",
"44444444444444   ***---XXXXXX###<<<      ---***   44444444444444",
"44444444444444   ***---XXXXXX###<<<      ---***   44444444444444",
"44444444444444   @@@###,,,   <<<<<<   ,,,---@@@   44444444444444",
"44444444444444   @@@###,,,   <<<<<<   ,,,---@@@   44444444444444",
"44444444444444   @@@###,,,   <<<<<<   ,,,---@@@   44444444444444",
"44444444444444   ######333:::<<<<<<:::333######   44444444444444",
"44444444444444   ######333:::<<<<<<:::333######   44444444444444",
"44444444444444   ######333:::<<<<<<:::333######   44444444444444",
"44444444444ooo      ***<<<<<<<<<<<<<<<<<<***      ooo44444444444",
"44444444444ooo      ***<<<<<<<<<<<<<<<<<<***      ooo44444444444",
"44444444444ooo      ***<<<<<<<<<<<<<<<<<<***      ooo44444444444",
"44444444ooo111222111   ***===<<<<<<===***   111222111ooo44444444",
"44444444ooo111222111   ***===<<<<<<===***   111222111ooo44444444",
"44444444ooo111222111   ***===<<<<<<===***   111222111ooo44444444",
"44444444ooo&&&111111   ...>>>++++++>>>...   111111&&&ooo44444444",
"44444444ooo&&&111111   ...>>>++++++>>>...   111111&&&ooo44444444",
"44444444ooo&&&111111   ...>>>++++++>>>...   111111&&&ooo44444444",
"44444444XXX###OOO&&&OOO111222>>>>>>222111OOO&&&OOO###XXX44444444",
"44444444XXX###OOO&&&OOO111222>>>>>>222111OOO&&&OOO###XXX44444444",
"44444444XXX###OOO&&&OOO111222>>>>>>222111OOO&&&OOO###XXX44444444",
"44444444XXX---222222OOO%%%&&&&&&&&&%%%%%%OOO222222---XXX44444444",
"44444444XXX---222222OOO%%%&&&&&&&&&%%%%%%OOO222222---XXX44444444",
"44444444XXX---222222OOO%%%&&&&&&&&&%%%%%%OOO222222---XXX44444444",
"44444444###---222222+++   111111111111   +++222222---###44444444",
"44444444###---222222+++   111111111111   +++222222---###44444444",
"44444444###---222222+++   111111111111   +++222222---###44444444",
"44444444###---      ++++++ooo   ooo++++++ooo      ---###44444444",
"44444444###---      ++++++ooo   ooo++++++ooo      ---###44444444",
"44444444###---      ++++++ooo   ooo++++++ooo      ---###44444444",
"44444444XXXXXXXXX   &&&&&&&&&      %%%&&&&&&   XXXXXXXXX44444444",
"44444444XXXXXXXXX   &&&&&&&&&      %%%&&&&&&   XXXXXXXXX44444444",
"44444444XXXXXXXXX   &&&&&&&&&      %%%&&&&&&   XXXXXXXXX44444444",
"44444444444444444444         444444         44444444444444444444",
"44444444444444444444         444444         44444444444444444444",
"44444444444444444444         444444         44444444444444444444",
"4444444444444444444444444444444444444444444444444444444444444444",
"4444444444444444444444444444444444444444444444444444444444444444"
};
