/* XPM */
static char *result[] = {
/* columns rows colors chars-per-pixel */
"64 64 21 1 ",
"  c black",
". c #39314B",
"X c #453F40",
"o c #5E3643",
"O c #5A5353",
"+ c #7A444A",
"@ c #564064",
"# c #4F546B",
"$ c #A93B3B",
"% c #E6482E",
"& c #BF7958",
"* c #EEA160",
"= c #8E478C",
"- c #CD6093",
"; c #28CCDF",
": c #CFC6B8",
"> c #F4CCA1",
", c #CDD8E9",
"< c #DFF6F5",
"1 c white",
"2 c None",
/* pixels */
"2222222222222222222222222222222222222222222222222222222222222222",
"2222222222222222222222222222222222222222222222222222222222222222",
"2222222222222222222222222222222222222222222222222222222222222222",
"2222222222222222222222222222222222222222222222222222222222222222",
"2222222222222222222222222222222222222222222222222222222222222222",
"2222222222222222222222222222222222222222222222222222222222222222",
"2222222222222222222222222222222222222222222222222222222222222222",
"2222222222222222222222222222222222222222222222222222222222222222",
"22222222222222222222.....................22222222222222222222222",
"22222222222222222222.....................22222222222222222222222",
"22222222222222222222.....................22222222222222222222222",
"22222222222222222...#########============...22222222222222222222",
"22222222222222222...#########============...22222222222222222222",
"22222222222222222...#########============...22222222222222222222",
"22222222222222...===========================...22222222222222222",
"22222222222222...===========================...22222222222222222",
"22222222222222...===========================...22222222222222222",
"22222222222222...=====================@@@===...22222222222222222",
"22222222222222...=====================@@@===...22222222222222222",
"22222222222222...=====================@@@===...22222222222222222",
"22222222222222...=========---------===@@@======...22222222222222",
"22222222222222...=========---------===@@@======...22222222222222",
"22222222222222...=========---------===@@@======...22222222222222",
"22222222222...=====================@@@***@@@===...22222222222222",
"22222222222...=====================@@@***@@@===...22222222222222",
"22222222222...=====================@@@***@@@===...22222222222222",
"22222222222...@@@@@@&&&=========      >>>@@@===...22222222222222",
"22222222222...@@@@@@&&&=========      >>>@@@===...22222222222222",
"22222222222...@@@@@@&&&=========      >>>@@@===...22222222222222",
"22222222222...@@@@@@+++=========:::   >>>         22222222222222",
"22222222222...@@@@@@+++=========:::   >>>         22222222222222",
"22222222222...@@@@@@+++=========:::   >>>         22222222222222",
"22222222222222   @@@@@@=========111;;;>>>***   22222222222222222",
"22222222222222   @@@@@@=========111;;;>>>***   22222222222222222",
"22222222222222   @@@@@@=========111;;;>>>***   22222222222222222",
"22222222222222   @@@@@@      ===>>>>>>>>>&&&   22222222222222222",
"22222222222222   @@@@@@      ===>>>>>>>>>&&&   22222222222222222",
"22222222222222   @@@@@@      ===>>>>>>>>>&&&   22222222222222222",
"22222222222222222      ,,,<<<,,,>>>***&&&   22222222222222222222",
"22222222222222222      ,,,<<<,,,>>>***&&&   22222222222222222222",
"22222222222222222      ,,,<<<,,,>>>***&&&   22222222222222222222",
"22222222222222222...   %%%%%%,,,ooo      22222222222222222222222",
"22222222222222222...   %%%%%%,,,ooo      22222222222222222222222",
"22222222222222222...   %%%%%%,,,ooo      22222222222222222222222",
"22222222222222...@@@      $$$%%%         22222222222222222222222",
"22222222222222...@@@      $$$%%%         22222222222222222222222",
"22222222222222...@@@      $$$%%%         22222222222222222222222",
"22222222222222...@@@   $$$   <<<<<<<<<   22222222222222222222222",
"22222222222222...@@@   $$$   <<<<<<<<<   22222222222222222222222",
"22222222222222...@@@   $$$   <<<<<<<<<   22222222222222222222222",
"22222222222...======   OOOOOO   <<<<<<   22222222222222222222222",
"22222222222...======   OOOOOO   <<<<<<   22222222222222222222222",
"22222222222...======   OOOOOO   <<<<<<   22222222222222222222222",
"22222222222...=========   XXXOOO         22222222222222222222222",
"22222222222...=========   XXXOOO         22222222222222222222222",
"22222222222...=========   XXXOOO         22222222222222222222222",
"22222222...============   %%%%%%%%%   22222222222222222222222222",
"22222222...============   %%%%%%%%%   22222222222222222222222222",
"22222222...============   %%%%%%%%%   22222222222222222222222222",
"22222222...............               22222222222222222222222222",
"22222222...............               22222222222222222222222222",
"22222222...............               22222222222222222222222222",
"2222222222222222222222222222222222222222222222222222222222222222",
"2222222222222222222222222222222222222222222222222222222222222222"
};
