/* XPM */
static char *result[] = {
/* columns rows colors chars-per-pixel */
"64 64 5 1 ",
"  c #494141",
". c #5A5152",
"X c #867677",
"o c #A3948E",
"O c #D8CEBE",
/* pixels */
"ooooooooXXXX....ooooooooooooooooooooooooXXXX....XXXXXXXXXXXX    ",
"ooooooooXXXX....ooooooooooooooooooooooooXXXX....XXXXXXXXXXXX    ",
"ooooooooXXXX....ooooooooooooooooooooooooXXXX....XXXXXXXXXXXX    ",
"ooooooooXXXX....ooooooooooooooooooooooooXXXX....XXXXXXXXXXXX    ",
"ooooooooXXXX....ooooooooooooooooooooooooXXXX....XXXXXXXXXXXX    ",
"ooooooooXXXX....ooooooooooooooooooooooooXXXX....XXXXXXXXXXXX    ",
"ooooooooXXXX....ooooooooooooooooooooooooXXXX....XXXXXXXXXXXX    ",
"ooooooooXXXX....ooooooooooooooooooooooooXXXX....XXXXXXXXXXXX    ",
"XXXXXXXXXXXX....ooooXXXXXXXXXXXXXXXXXXXXXXXX....XXXXXXXXXXXX    ",
"XXXXXXXXXXXX....ooooXXXXXXXXXXXXXXXXXXXXXXXX....XXXXXXXXXXXX    ",
"XXXXXXXXXXXX....ooooXXXXXXXXXXXXXXXXXXXXXXXX....XXXXXXXXXXXX    ",
"XXXXXXXXXXXX....ooooXXXXXXXXXXXXXXXXXXXXXXXX....XXXXXXXXXXXX    ",
"    ........    ................    ........    ............    ",
"    ........    ................    ........    ............    ",
"    ........    ................    ........    ............    ",
"    ........    ................    ........    ............    ",
"....OOOOOOOOoooooooooooooooooooo....OOOOOOOOoooooooooooooooo    ",
"....OOOOOOOOoooooooooooooooooooo....OOOOOOOOoooooooooooooooo    ",
"....OOOOOOOOoooooooooooooooooooo....OOOOOOOOoooooooooooooooo    ",
"....OOOOOOOOoooooooooooooooooooo....OOOOOOOOoooooooooooooooo    ",
"....ooooooooooooooooooooooooXXXX....oooooooooooooooooooooooo    ",
"....ooooooooooooooooooooooooXXXX....oooooooooooooooooooooooo    ",
"....ooooooooooooooooooooooooXXXX....oooooooooooooooooooooooo    ",
"....ooooooooooooooooooooooooXXXX....oooooooooooooooooooooooo    ",
"....ooooXXXXXXXXXXXXXXXXXXXXXXXX....ooooXXXXXXXXXXXXXXXXXXXX    ",
"....ooooXXXXXXXXXXXXXXXXXXXXXXXX....ooooXXXXXXXXXXXXXXXXXXXX    ",
"....ooooXXXXXXXXXXXXXXXXXXXXXXXX....ooooXXXXXXXXXXXXXXXXXXXX    ",
"....ooooXXXXXXXXXXXXXXXXXXXXXXXX....ooooXXXXXXXXXXXXXXXXXXXX    ",
"    ........    ................    ........    ............    ",
"    ........    ................    ........    ............    ",
"    ........    ................    ........    ............    ",
"    ........    ................    ........    ............    ",
"oooooooooooo....OOOOOOOOoooooooooooooooooooo....XXXXXXXXXXXX    ",
"oooooooooooo....OOOOOOOOoooooooooooooooooooo....XXXXXXXXXXXX    ",
"oooooooooooo....OOOOOOOOoooooooooooooooooooo....XXXXXXXXXXXX    ",
"oooooooooooo....OOOOOOOOoooooooooooooooooooo....XXXXXXXXXXXX    ",
"ooooooooXXXX....ooooooooooooooooooooooooXXXX....XXXXXXXXXXXX    ",
"ooooooooXXXX....ooooooooooooooooooooooooXXXX....XXXXXXXXXXXX    ",
"ooooooooXXXX....ooooooooooooooooooooooooXXXX....XXXXXXXXXXXX    ",
"ooooooooXXXX....ooooooooooooooooooooooooXXXX....XXXXXXXXXXXX    ",
"XXXXXXXXXXXX....ooooXXXXXXXXXXXXXXXXXXXXXXXX....XXXXXXXXXXXX    ",
"XXXXXXXXXXXX....ooooXXXXXXXXXXXXXXXXXXXXXXXX....XXXXXXXXXXXX    ",
"XXXXXXXXXXXX....ooooXXXXXXXXXXXXXXXXXXXXXXXX....XXXXXXXXXXXX    ",
"XXXXXXXXXXXX....ooooXXXXXXXXXXXXXXXXXXXXXXXX....XXXXXXXXXXXX    ",
"    ........    ................    ........    ............    ",
"    ........    ................    ........    ............    ",
"    ........    ................    ........    ............    ",
"    ........    ................    ........    ............    ",
"....OOOOOOOOoooooooooooooooooooo....OOOOOOOOoooooooooooooooo    ",
"....OOOOOOOOoooooooooooooooooooo....OOOOOOOOoooooooooooooooo    ",
"....OOOOOOOOoooooooooooooooooooo....OOOOOOOOoooooooooooooooo    ",
"....OOOOOOOOoooooooooooooooooooo....OOOOOOOOoooooooooooooooo    ",
"....ooooooooooooooooooooooooXXXX....oooooooooooooooooooooooo    ",
"....ooooooooooooooooooooooooXXXX....oooooooooooooooooooooooo    ",
"....ooooooooooooooooooooooooXXXX....oooooooooooooooooooooooo    ",
"....ooooooooooooooooooooooooXXXX....oooooooooooooooooooooooo    ",
"....ooooXXXXXXXXXXXXXXXXXXXXXXXX....ooooXXXXXXXXXXXXXXXXXXXX    ",
"....ooooXXXXXXXXXXXXXXXXXXXXXXXX....ooooXXXXXXXXXXXXXXXXXXXX    ",
"....ooooXXXXXXXXXXXXXXXXXXXXXXXX....ooooXXXXXXXXXXXXXXXXXXXX    ",
"....ooooXXXXXXXXXXXXXXXXXXXXXXXX....ooooXXXXXXXXXXXXXXXXXXXX    ",
"    ........    ................    ........    ............    ",
"    ........    ................    ........    ............    ",
"    ........    ................    ........    ............    ",
"    ........    ................    ........    ............    "
};
